<svg height="1651pt" viewBox="0.00 0.00 318.00 1651.00" width="318pt" xmlns="http://www.w3.org/2000/svg" xmlns:xlink="http://www.w3.org/1999/xlink">
<g class="graph" id="graph0" transform="scale(1 1) rotate(0) translate(4 1647)">
<title>G</title>
<polygon fill="#ffffff" points="-4,4 -4,-1647 314,-1647 314,4 -4,4" stroke="transparent"/>
<!-- 139884550569544 -->
<g class="node" id="node1">
<title>139884550569544</title>
<polygon fill="none" points="45.5,-1606.5 45.5,-1642.5 264.5,-1642.5 264.5,-1606.5 45.5,-1606.5" stroke="#000000"/>
<text fill="#000000" font-family="Times,serif" font-size="14.00" text-anchor="middle" x="155" y="-1620.8">conv2d_1_input: InputLayer</text>
</g>
<!-- 139884550569152 -->
<g class="node" id="node2">
<title>139884550569152</title>
<polygon fill="none" points="79.5,-1533.5 79.5,-1569.5 230.5,-1569.5 230.5,-1533.5 79.5,-1533.5" stroke="#000000"/>
<text fill="#000000" font-family="Times,serif" font-size="14.00" text-anchor="middle" x="155" y="-1547.8">conv2d_1: Conv2D</text>
</g>
<!-- 139884550569544&#45;&gt;139884550569152 -->
<g class="edge" id="edge1">
<title>139884550569544-&gt;139884550569152</title>
<path d="M155,-1606.4551C155,-1598.3828 155,-1588.6764 155,-1579.6817" fill="none" stroke="#000000"/>
<polygon fill="#000000" points="158.5001,-1579.5903 155,-1569.5904 151.5001,-1579.5904 158.5001,-1579.5903" stroke="#000000"/>
</g>
<!-- 139884550540872 -->
<g class="node" id="node3">
<title>139884550540872</title>
<polygon fill="none" points="0,-1460.5 0,-1496.5 310,-1496.5 310,-1460.5 0,-1460.5" stroke="#000000"/>
<text fill="#000000" font-family="Times,serif" font-size="14.00" text-anchor="middle" x="155" y="-1474.8">average_pooling2d_1: AveragePooling2D</text>
</g>
<!-- 139884550569152&#45;&gt;139884550540872 -->
<g class="edge" id="edge2">
<title>139884550569152-&gt;139884550540872</title>
<path d="M155,-1533.4551C155,-1525.3828 155,-1515.6764 155,-1506.6817" fill="none" stroke="#000000"/>
<polygon fill="#000000" points="158.5001,-1506.5903 155,-1496.5904 151.5001,-1506.5904 158.5001,-1506.5903" stroke="#000000"/>
</g>
<!-- 139886982830736 -->
<g class="node" id="node4">
<title>139886982830736</title>
<polygon fill="none" points="26.5,-1387.5 26.5,-1423.5 283.5,-1423.5 283.5,-1387.5 26.5,-1387.5" stroke="#000000"/>
<text fill="#000000" font-family="Times,serif" font-size="14.00" text-anchor="middle" x="155" y="-1401.8">gaussian_noise_1: GaussianNoise</text>
</g>
<!-- 139884550540872&#45;&gt;139886982830736 -->
<g class="edge" id="edge3">
<title>139884550540872-&gt;139886982830736</title>
<path d="M155,-1460.4551C155,-1452.3828 155,-1442.6764 155,-1433.6817" fill="none" stroke="#000000"/>
<polygon fill="#000000" points="158.5001,-1433.5903 155,-1423.5904 151.5001,-1433.5904 158.5001,-1433.5903" stroke="#000000"/>
</g>
<!-- 139884550061248 -->
<g class="node" id="node5">
<title>139884550061248</title>
<polygon fill="none" points="76.5,-1314.5 76.5,-1350.5 233.5,-1350.5 233.5,-1314.5 76.5,-1314.5" stroke="#000000"/>
<text fill="#000000" font-family="Times,serif" font-size="14.00" text-anchor="middle" x="155" y="-1328.8">dropout_1: Dropout</text>
</g>
<!-- 139886982830736&#45;&gt;139884550061248 -->
<g class="edge" id="edge4">
<title>139886982830736-&gt;139884550061248</title>
<path d="M155,-1387.4551C155,-1379.3828 155,-1369.6764 155,-1360.6817" fill="none" stroke="#000000"/>
<polygon fill="#000000" points="158.5001,-1360.5903 155,-1350.5904 151.5001,-1360.5904 158.5001,-1360.5903" stroke="#000000"/>
</g>
<!-- 139884550136944 -->
<g class="node" id="node6">
<title>139884550136944</title>
<polygon fill="none" points="79.5,-1241.5 79.5,-1277.5 230.5,-1277.5 230.5,-1241.5 79.5,-1241.5" stroke="#000000"/>
<text fill="#000000" font-family="Times,serif" font-size="14.00" text-anchor="middle" x="155" y="-1255.8">conv2d_2: Conv2D</text>
</g>
<!-- 139884550061248&#45;&gt;139884550136944 -->
<g class="edge" id="edge5">
<title>139884550061248-&gt;139884550136944</title>
<path d="M155,-1314.4551C155,-1306.3828 155,-1296.6764 155,-1287.6817" fill="none" stroke="#000000"/>
<polygon fill="#000000" points="158.5001,-1287.5903 155,-1277.5904 151.5001,-1287.5904 158.5001,-1287.5903" stroke="#000000"/>
</g>
<!-- 139884550061640 -->
<g class="node" id="node7">
<title>139884550061640</title>
<polygon fill="none" points="0,-1168.5 0,-1204.5 310,-1204.5 310,-1168.5 0,-1168.5" stroke="#000000"/>
<text fill="#000000" font-family="Times,serif" font-size="14.00" text-anchor="middle" x="155" y="-1182.8">average_pooling2d_2: AveragePooling2D</text>
</g>
<!-- 139884550136944&#45;&gt;139884550061640 -->
<g class="edge" id="edge6">
<title>139884550136944-&gt;139884550061640</title>
<path d="M155,-1241.4551C155,-1233.3828 155,-1223.6764 155,-1214.6817" fill="none" stroke="#000000"/>
<polygon fill="#000000" points="158.5001,-1214.5903 155,-1204.5904 151.5001,-1214.5904 158.5001,-1214.5903" stroke="#000000"/>
</g>
<!-- 139884549881080 -->
<g class="node" id="node8">
<title>139884549881080</title>
<polygon fill="none" points="26.5,-1095.5 26.5,-1131.5 283.5,-1131.5 283.5,-1095.5 26.5,-1095.5" stroke="#000000"/>
<text fill="#000000" font-family="Times,serif" font-size="14.00" text-anchor="middle" x="155" y="-1109.8">gaussian_noise_2: GaussianNoise</text>
</g>
<!-- 139884550061640&#45;&gt;139884549881080 -->
<g class="edge" id="edge7">
<title>139884550061640-&gt;139884549881080</title>
<path d="M155,-1168.4551C155,-1160.3828 155,-1150.6764 155,-1141.6817" fill="none" stroke="#000000"/>
<polygon fill="#000000" points="158.5001,-1141.5903 155,-1131.5904 151.5001,-1141.5904 158.5001,-1141.5903" stroke="#000000"/>
</g>
<!-- 139884549583144 -->
<g class="node" id="node9">
<title>139884549583144</title>
<polygon fill="none" points="76.5,-1022.5 76.5,-1058.5 233.5,-1058.5 233.5,-1022.5 76.5,-1022.5" stroke="#000000"/>
<text fill="#000000" font-family="Times,serif" font-size="14.00" text-anchor="middle" x="155" y="-1036.8">dropout_2: Dropout</text>
</g>
<!-- 139884549881080&#45;&gt;139884549583144 -->
<g class="edge" id="edge8">
<title>139884549881080-&gt;139884549583144</title>
<path d="M155,-1095.4551C155,-1087.3828 155,-1077.6764 155,-1068.6817" fill="none" stroke="#000000"/>
<polygon fill="#000000" points="158.5001,-1068.5903 155,-1058.5904 151.5001,-1068.5904 158.5001,-1068.5903" stroke="#000000"/>
</g>
<!-- 139884549585384 -->
<g class="node" id="node10">
<title>139884549585384</title>
<polygon fill="none" points="79.5,-949.5 79.5,-985.5 230.5,-985.5 230.5,-949.5 79.5,-949.5" stroke="#000000"/>
<text fill="#000000" font-family="Times,serif" font-size="14.00" text-anchor="middle" x="155" y="-963.8">conv2d_3: Conv2D</text>
</g>
<!-- 139884549583144&#45;&gt;139884549585384 -->
<g class="edge" id="edge9">
<title>139884549583144-&gt;139884549585384</title>
<path d="M155,-1022.4551C155,-1014.3828 155,-1004.6764 155,-995.6817" fill="none" stroke="#000000"/>
<polygon fill="#000000" points="158.5001,-995.5903 155,-985.5904 151.5001,-995.5904 158.5001,-995.5903" stroke="#000000"/>
</g>
<!-- 139884549585440 -->
<g class="node" id="node11">
<title>139884549585440</title>
<polygon fill="none" points="0,-876.5 0,-912.5 310,-912.5 310,-876.5 0,-876.5" stroke="#000000"/>
<text fill="#000000" font-family="Times,serif" font-size="14.00" text-anchor="middle" x="155" y="-890.8">average_pooling2d_3: AveragePooling2D</text>
</g>
<!-- 139884549585384&#45;&gt;139884549585440 -->
<g class="edge" id="edge10">
<title>139884549585384-&gt;139884549585440</title>
<path d="M155,-949.4551C155,-941.3828 155,-931.6764 155,-922.6817" fill="none" stroke="#000000"/>
<polygon fill="#000000" points="158.5001,-922.5903 155,-912.5904 151.5001,-922.5904 158.5001,-922.5903" stroke="#000000"/>
</g>
<!-- 139884549312016 -->
<g class="node" id="node12">
<title>139884549312016</title>
<polygon fill="none" points="26.5,-803.5 26.5,-839.5 283.5,-839.5 283.5,-803.5 26.5,-803.5" stroke="#000000"/>
<text fill="#000000" font-family="Times,serif" font-size="14.00" text-anchor="middle" x="155" y="-817.8">gaussian_noise_3: GaussianNoise</text>
</g>
<!-- 139884549585440&#45;&gt;139884549312016 -->
<g class="edge" id="edge11">
<title>139884549585440-&gt;139884549312016</title>
<path d="M155,-876.4551C155,-868.3828 155,-858.6764 155,-849.6817" fill="none" stroke="#000000"/>
<polygon fill="#000000" points="158.5001,-849.5903 155,-839.5904 151.5001,-849.5904 158.5001,-849.5903" stroke="#000000"/>
</g>
<!-- 139884549009816 -->
<g class="node" id="node13">
<title>139884549009816</title>
<polygon fill="none" points="76.5,-730.5 76.5,-766.5 233.5,-766.5 233.5,-730.5 76.5,-730.5" stroke="#000000"/>
<text fill="#000000" font-family="Times,serif" font-size="14.00" text-anchor="middle" x="155" y="-744.8">dropout_3: Dropout</text>
</g>
<!-- 139884549312016&#45;&gt;139884549009816 -->
<g class="edge" id="edge12">
<title>139884549312016-&gt;139884549009816</title>
<path d="M155,-803.4551C155,-795.3828 155,-785.6764 155,-776.6817" fill="none" stroke="#000000"/>
<polygon fill="#000000" points="158.5001,-776.5903 155,-766.5904 151.5001,-776.5904 158.5001,-776.5903" stroke="#000000"/>
</g>
<!-- 139884549012056 -->
<g class="node" id="node14">
<title>139884549012056</title>
<polygon fill="none" points="79.5,-657.5 79.5,-693.5 230.5,-693.5 230.5,-657.5 79.5,-657.5" stroke="#000000"/>
<text fill="#000000" font-family="Times,serif" font-size="14.00" text-anchor="middle" x="155" y="-671.8">conv2d_4: Conv2D</text>
</g>
<!-- 139884549009816&#45;&gt;139884549012056 -->
<g class="edge" id="edge13">
<title>139884549009816-&gt;139884549012056</title>
<path d="M155,-730.4551C155,-722.3828 155,-712.6764 155,-703.6817" fill="none" stroke="#000000"/>
<polygon fill="#000000" points="158.5001,-703.5903 155,-693.5904 151.5001,-703.5904 158.5001,-703.5903" stroke="#000000"/>
</g>
<!-- 139884549012112 -->
<g class="node" id="node15">
<title>139884549012112</title>
<polygon fill="none" points="0,-584.5 0,-620.5 310,-620.5 310,-584.5 0,-584.5" stroke="#000000"/>
<text fill="#000000" font-family="Times,serif" font-size="14.00" text-anchor="middle" x="155" y="-598.8">average_pooling2d_4: AveragePooling2D</text>
</g>
<!-- 139884549012056&#45;&gt;139884549012112 -->
<g class="edge" id="edge14">
<title>139884549012056-&gt;139884549012112</title>
<path d="M155,-657.4551C155,-649.3828 155,-639.6764 155,-630.6817" fill="none" stroke="#000000"/>
<polygon fill="#000000" points="158.5001,-630.5903 155,-620.5904 151.5001,-630.5904 158.5001,-630.5903" stroke="#000000"/>
</g>
<!-- 139884549254784 -->
<g class="node" id="node16">
<title>139884549254784</title>
<polygon fill="none" points="26.5,-511.5 26.5,-547.5 283.5,-547.5 283.5,-511.5 26.5,-511.5" stroke="#000000"/>
<text fill="#000000" font-family="Times,serif" font-size="14.00" text-anchor="middle" x="155" y="-525.8">gaussian_noise_4: GaussianNoise</text>
</g>
<!-- 139884549012112&#45;&gt;139884549254784 -->
<g class="edge" id="edge15">
<title>139884549012112-&gt;139884549254784</title>
<path d="M155,-584.4551C155,-576.3828 155,-566.6764 155,-557.6817" fill="none" stroke="#000000"/>
<polygon fill="#000000" points="158.5001,-557.5903 155,-547.5904 151.5001,-557.5904 158.5001,-557.5903" stroke="#000000"/>
</g>
<!-- 139884548952584 -->
<g class="node" id="node17">
<title>139884548952584</title>
<polygon fill="none" points="76.5,-438.5 76.5,-474.5 233.5,-474.5 233.5,-438.5 76.5,-438.5" stroke="#000000"/>
<text fill="#000000" font-family="Times,serif" font-size="14.00" text-anchor="middle" x="155" y="-452.8">dropout_4: Dropout</text>
</g>
<!-- 139884549254784&#45;&gt;139884548952584 -->
<g class="edge" id="edge16">
<title>139884549254784-&gt;139884548952584</title>
<path d="M155,-511.4551C155,-503.3828 155,-493.6764 155,-484.6817" fill="none" stroke="#000000"/>
<polygon fill="#000000" points="158.5001,-484.5903 155,-474.5904 151.5001,-484.5904 158.5001,-484.5903" stroke="#000000"/>
</g>
<!-- 139884548954824 -->
<g class="node" id="node18">
<title>139884548954824</title>
<polygon fill="none" points="79.5,-365.5 79.5,-401.5 230.5,-401.5 230.5,-365.5 79.5,-365.5" stroke="#000000"/>
<text fill="#000000" font-family="Times,serif" font-size="14.00" text-anchor="middle" x="155" y="-379.8">conv2d_5: Conv2D</text>
</g>
<!-- 139884548952584&#45;&gt;139884548954824 -->
<g class="edge" id="edge17">
<title>139884548952584-&gt;139884548954824</title>
<path d="M155,-438.4551C155,-430.3828 155,-420.6764 155,-411.6817" fill="none" stroke="#000000"/>
<polygon fill="#000000" points="158.5001,-411.5903 155,-401.5904 151.5001,-411.5904 158.5001,-411.5903" stroke="#000000"/>
</g>
<!-- 139884548954880 -->
<g class="node" id="node19">
<title>139884548954880</title>
<polygon fill="none" points="0,-292.5 0,-328.5 310,-328.5 310,-292.5 0,-292.5" stroke="#000000"/>
<text fill="#000000" font-family="Times,serif" font-size="14.00" text-anchor="middle" x="155" y="-306.8">average_pooling2d_5: AveragePooling2D</text>
</g>
<!-- 139884548954824&#45;&gt;139884548954880 -->
<g class="edge" id="edge18">
<title>139884548954824-&gt;139884548954880</title>
<path d="M155,-365.4551C155,-357.3828 155,-347.6764 155,-338.6817" fill="none" stroke="#000000"/>
<polygon fill="#000000" points="158.5001,-338.5903 155,-328.5904 151.5001,-338.5904 158.5001,-338.5903" stroke="#000000"/>
</g>
<!-- 139884548681512 -->
<g class="node" id="node20">
<title>139884548681512</title>
<polygon fill="none" points="26.5,-219.5 26.5,-255.5 283.5,-255.5 283.5,-219.5 26.5,-219.5" stroke="#000000"/>
<text fill="#000000" font-family="Times,serif" font-size="14.00" text-anchor="middle" x="155" y="-233.8">gaussian_noise_5: GaussianNoise</text>
</g>
<!-- 139884548954880&#45;&gt;139884548681512 -->
<g class="edge" id="edge19">
<title>139884548954880-&gt;139884548681512</title>
<path d="M155,-292.4551C155,-284.3828 155,-274.6764 155,-265.6817" fill="none" stroke="#000000"/>
<polygon fill="#000000" points="158.5001,-265.5903 155,-255.5904 151.5001,-265.5904 158.5001,-265.5903" stroke="#000000"/>
</g>
<!-- 139884548375216 -->
<g class="node" id="node21">
<title>139884548375216</title>
<polygon fill="none" points="76.5,-146.5 76.5,-182.5 233.5,-182.5 233.5,-146.5 76.5,-146.5" stroke="#000000"/>
<text fill="#000000" font-family="Times,serif" font-size="14.00" text-anchor="middle" x="155" y="-160.8">dropout_5: Dropout</text>
</g>
<!-- 139884548681512&#45;&gt;139884548375216 -->
<g class="edge" id="edge20">
<title>139884548681512-&gt;139884548375216</title>
<path d="M155,-219.4551C155,-211.3828 155,-201.6764 155,-192.6817" fill="none" stroke="#000000"/>
<polygon fill="#000000" points="158.5001,-192.5903 155,-182.5904 151.5001,-192.5904 158.5001,-192.5903" stroke="#000000"/>
</g>
<!-- 139884548954712 -->
<g class="node" id="node22">
<title>139884548954712</title>
<polygon fill="none" points="84.5,-73.5 84.5,-109.5 225.5,-109.5 225.5,-73.5 84.5,-73.5" stroke="#000000"/>
<text fill="#000000" font-family="Times,serif" font-size="14.00" text-anchor="middle" x="155" y="-87.8">flatten_1: Flatten</text>
</g>
<!-- 139884548375216&#45;&gt;139884548954712 -->
<g class="edge" id="edge21">
<title>139884548375216-&gt;139884548954712</title>
<path d="M155,-146.4551C155,-138.3828 155,-128.6764 155,-119.6817" fill="none" stroke="#000000"/>
<polygon fill="#000000" points="158.5001,-119.5903 155,-109.5904 151.5001,-119.5904 158.5001,-119.5903" stroke="#000000"/>
</g>
<!-- 139884548377456 -->
<g class="node" id="node23">
<title>139884548377456</title>
<polygon fill="none" points="91,-.5 91,-36.5 219,-36.5 219,-.5 91,-.5" stroke="#000000"/>
<text fill="#000000" font-family="Times,serif" font-size="14.00" text-anchor="middle" x="155" y="-14.8">dense_1: Dense</text>
</g>
<!-- 139884548954712&#45;&gt;139884548377456 -->
<g class="edge" id="edge22">
<title>139884548954712-&gt;139884548377456</title>
<path d="M155,-73.4551C155,-65.3828 155,-55.6764 155,-46.6817" fill="none" stroke="#000000"/>
<polygon fill="#000000" points="158.5001,-46.5903 155,-36.5904 151.5001,-46.5904 158.5001,-46.5903" stroke="#000000"/>
</g>
</g>
</svg>